<svg xmlns="http://www.w3.org/2000/svg" xmlns:xlink="http://www.w3.org/1999/xlink" width="1000" zoomAndPan="magnify" viewBox="0 0 750 749.999995" height="1000" preserveAspectRatio="xMidYMid meet" version="1.0"><defs><clipPath id="a55aea313f"><path d="M 426 112 L 738 112 L 738 680.796875 L 426 680.796875 Z M 426 112 " clip-rule="nonzero"/></clipPath><clipPath id="2bd68a6e0c"><path d="M 12 112 L 324 112 L 324 680.796875 L 12 680.796875 Z M 12 112 " clip-rule="nonzero"/></clipPath><clipPath id="bcf0617629"><path d="M 205 69.546875 L 530 69.546875 L 530 357 L 205 357 Z M 205 69.546875 " clip-rule="nonzero"/></clipPath></defs><g clip-path="url(#a55aea313f)"><path fill="#f57c67" d="M 699.476562 112.664062 C 677.066406 115.273438 666.523438 132.964844 666.953125 155.898438 C 668.300781 217.542969 659.90625 287.726562 626.148438 338.414062 C 612.941406 358.226562 597.039062 371.386719 577.898438 387.183594 L 603.945312 337.210938 C 612.136719 321.5 606.035156 302.089844 590.332031 293.917969 C 574.628906 285.691406 555.261719 291.796875 547.066406 307.507812 L 468.238281 458.773438 C 394.914062 560.265625 440.675781 680.335938 440.675781 680.335938 L 553.855469 680.851562 C 554.429688 622.882812 590.074219 573.453125 590.074219 573.453125 C 749.449219 386.09375 737.699219 204.324219 736.695312 157.792969 C 736.125 130.613281 721.824219 110.054688 699.476562 112.664062 " fill-opacity="1" fill-rule="nonzero"/></g><g clip-path="url(#2bd68a6e0c)"><path fill="#f57c67" d="M 50.535156 112.664062 C 72.960938 115.273438 83.476562 132.964844 83.046875 155.898438 C 81.699219 217.542969 90.09375 287.726562 123.851562 338.414062 C 137.058594 358.226562 152.960938 371.386719 172.101562 387.183594 L 146.054688 337.210938 C 137.863281 321.5 143.9375 302.089844 159.667969 293.917969 C 175.367188 285.691406 194.738281 291.796875 202.933594 307.507812 L 281.789062 458.773438 C 355.085938 560.265625 309.355469 680.335938 309.355469 680.335938 L 196.144531 680.851562 C 195.570312 622.882812 159.925781 573.453125 159.925781 573.453125 C 0.558594 386.09375 12.289062 204.324219 13.292969 157.792969 C 13.875 130.613281 28.191406 110.054688 50.535156 112.664062 " fill-opacity="1" fill-rule="nonzero"/></g><g clip-path="url(#bcf0617629)"><path fill="#ee3224" d="M 529.386719 159.339844 C 529.386719 109.710938 489.214844 69.488281 439.613281 69.488281 C 409.898438 69.488281 383.566406 83.9375 367.234375 106.1875 C 350.875 83.9375 324.539062 69.488281 294.828125 69.488281 C 245.253906 69.488281 205.054688 109.710938 205.054688 159.339844 C 205.054688 183.335938 214.480469 205.128906 229.8125 221.238281 L 363.050781 356.476562 L 510.5625 214.386719 C 522.335938 199.164062 529.386719 180.070312 529.386719 159.339844 " fill-opacity="1" fill-rule="nonzero"/></g></svg>