<svg xmlns="http://www.w3.org/2000/svg" xmlns:xlink="http://www.w3.org/1999/xlink" width="494" zoomAndPan="magnify" viewBox="0 0 370.5 166.499995" height="222" preserveAspectRatio="xMidYMid meet" version="1.0"><defs><clipPath id="0e6649823b"><path d="M 123.058594 14.273438 L 247 14.273438 L 247 151.859375 L 123.058594 151.859375 Z M 123.058594 14.273438 " clip-rule="nonzero"/></clipPath><clipPath id="0637970381"><path d="M 0.511719 85 L 99 85 L 99 166 L 0.511719 166 Z M 0.511719 85 " clip-rule="nonzero"/></clipPath><clipPath id="beddc73fb9"><path d="M 0.511719 0.144531 L 99 0.144531 L 99 136 L 0.511719 136 Z M 0.511719 0.144531 " clip-rule="nonzero"/></clipPath><clipPath id="8dbac21da1"><path d="M 271.097656 85 L 369.695312 85 L 369.695312 166 L 271.097656 166 Z M 271.097656 85 " clip-rule="nonzero"/></clipPath><clipPath id="dcbca3fcf4"><path d="M 271.097656 0.144531 L 369.695312 0.144531 L 369.695312 136 L 271.097656 136 Z M 271.097656 0.144531 " clip-rule="nonzero"/></clipPath></defs><g clip-path="url(#0e6649823b)"><path fill="#0cc0df" d="M 206.410156 151.699219 L 163.746094 151.699219 C 152.914062 151.699219 142.730469 147.46875 135.070312 139.789062 C 127.417969 132.109375 123.203125 121.902344 123.207031 111.046875 L 123.214844 99.570312 L 161.621094 99.570312 L 161.625 111.328125 C 161.625 112.335938 162.433594 113.15625 163.429688 113.15625 L 206.597656 113.15625 C 207.59375 113.15625 208.40625 112.335938 208.40625 111.328125 L 208.40625 102.789062 L 219.378906 102.789062 L 219.378906 111.328125 C 219.378906 118.390625 213.648438 124.132812 206.597656 124.132812 L 163.429688 124.132812 C 156.382812 124.132812 150.648438 118.390625 150.648438 111.328125 L 150.648438 110.542969 L 134.179688 110.542969 L 134.179688 111.054688 C 134.175781 118.980469 137.253906 126.433594 142.84375 132.039062 C 148.425781 137.636719 155.851562 140.722656 163.746094 140.722656 L 206.410156 140.722656 C 222.714844 140.722656 235.976562 127.417969 235.976562 111.0625 C 235.976562 94.707031 222.714844 81.398438 206.410156 81.398438 L 156.535156 81.398438 C 138.085938 81.398438 123.078125 66.355469 123.078125 47.867188 C 123.078125 29.378906 138.085938 14.335938 156.535156 14.335938 L 212.59375 14.335938 C 231 14.335938 246.011719 29.347656 246.046875 47.792969 L 246.0625 52.828125 L 235.085938 52.855469 L 235.074219 47.820312 C 235.046875 35.40625 224.964844 25.3125 212.59375 25.3125 L 156.535156 25.3125 C 144.140625 25.3125 134.054688 35.429688 134.054688 47.867188 C 134.054688 60.304688 144.140625 70.421875 156.535156 70.421875 L 206.410156 70.425781 C 228.765625 70.425781 246.953125 88.652344 246.953125 111.0625 C 246.953125 133.46875 228.765625 151.699219 206.410156 151.699219 " fill-opacity="1" fill-rule="nonzero"/></g><g clip-path="url(#0637970381)"><path fill="#16cf10" d="M 0.511719 103.570312 L 98.898438 165.78125 L 98.898438 147.277344 L 0.511719 85.066406 Z M 0.511719 103.570312 " fill-opacity="1" fill-rule="nonzero"/></g><g clip-path="url(#beddc73fb9)"><path fill="#16cf10" d="M 0.511719 73.433594 L 98.898438 135.613281 L 98.898438 102.386719 L 44.671875 67.914062 L 98.898438 33.441406 L 98.898438 0.214844 L 0.511719 62.394531 Z M 0.511719 73.433594 " fill-opacity="1" fill-rule="nonzero"/></g><g clip-path="url(#8dbac21da1)"><path fill="#16cf10" d="M 271.097656 165.757812 L 369.488281 103.597656 L 369.488281 85.0625 L 271.097656 147.257812 Z M 271.097656 165.757812 " fill-opacity="1" fill-rule="nonzero"/></g><g clip-path="url(#dcbca3fcf4)"><path fill="#16cf10" d="M 271.097656 33.46875 L 325.332031 67.933594 L 271.097656 102.398438 L 271.097656 135.628906 L 369.488281 73.429688 L 369.488281 62.402344 L 271.097656 0.238281 Z M 271.097656 33.46875 " fill-opacity="1" fill-rule="nonzero"/></g></svg>